 <svg viewBox="0 0 700 519" fill="none" xmlns="http://www.w3.org/2000/svg" class="w-full mt-6 md:mt-0">
        <g clip-path="url(#home-pc-illustration_svg__a)">
        <path d="M673.98 445.816c-1.916 0-3.832-.479-5.588-1.438l-18.677-10.866c-1.117-.639-1.756-1.758-1.756-3.036s.639-2.397 1.756-3.036l18.677-10.866c3.353-1.917 7.663-1.917 11.175 0l18.677 10.866c1.117.639 1.756 1.758 1.756 3.036s-.639 2.397-1.756 3.036l-18.677 10.866c-1.756.799-3.672 1.438-5.587 1.438Zm0-27.804c-1.437 0-2.874.32-4.151 1.119l-18.677 10.866c-.16.159-.32.319-.32.479 0 .16 0 .32.32.479l18.677 10.866a8.22 8.22 0 0 0 8.141 0l18.678-10.866c.159-.159.319-.319.319-.479 0-.16 0-.32-.319-.479l-18.678-10.866c-1.277-.639-2.554-1.119-3.99-1.119Z" fill="url(#home-pc-illustration_svg__b)"></path>
        <path d="M620.343 384.297c-3.193 0-6.226-.799-9.1-2.397l-32.246-18.696c-1.596-.959-2.394-2.397-2.394-4.314 0-1.758.957-3.356 2.394-4.315l32.246-18.695a18.168 18.168 0 0 1 18.039 0l32.246 18.695c1.597.959 2.395 2.397 2.395 4.315 0 1.758-.958 3.355-2.395 4.314L629.442 381.9c-2.874 1.598-5.907 2.397-9.099 2.397Zm-7.503-4.954c4.629 2.716 10.376 2.716 15.165 0l32.246-18.696a1.95 1.95 0 0 0 .958-1.597c0-.32-.16-1.119-.958-1.598l-32.406-18.696c-4.629-2.716-10.376-2.716-15.165 0l-32.246 18.696a1.95 1.95 0 0 0-.958 1.598c0 .319.16 1.118.958 1.597l32.406 18.696Z" fill="url(#home-pc-illustration_svg__c)"></path>
        <path d="M43.74 413.698c-3.193 0-6.226-.799-9.1-2.397L2.396 392.606C.798 391.647 0 390.209 0 388.291c0-1.757.958-3.355 2.395-4.314l32.246-18.696a18.172 18.172 0 0 1 18.039 0l32.246 18.696c1.596.959 2.394 2.397 2.394 4.314 0 1.758-.957 3.356-2.394 4.315L52.68 411.141c-2.714 1.758-5.907 2.557-8.94 2.557Zm0-47.618c-2.554 0-5.268.639-7.503 2.078L3.991 386.693a1.952 1.952 0 0 0-.958 1.598c0 .32.16 1.119.958 1.598l32.246 18.696c4.63 2.716 10.377 2.716 15.166 0l32.246-18.696a1.95 1.95 0 0 0 .958-1.598c0-.319-.16-1.118-.958-1.598l-32.246-18.695a16.49 16.49 0 0 0-7.663-1.918Z" fill="url(#home-pc-illustration_svg__d)"></path>
        <path opacity="0.6" d="M370.193 494.872 139.68 361.606c-3.352-1.917-2.873-5.273.958-7.51l147.982-85.488c3.831-2.237 9.738-2.557 13.09-.479l230.513 133.265c3.352 1.918 2.873 5.273-.958 7.51l-147.981 85.488c-3.832 2.237-9.738 2.397-13.091.48Z" fill="#020230"></path><path d="M375.461 519c-2.714 0-5.268-.639-7.183-1.758L105.199 365.281c-2.075-1.278-3.352-3.036-3.352-5.113 0-2.237 1.596-4.634 4.469-6.232l179.43-105.142c4.949-2.876 12.133-3.196 16.443-.639l262.919 152.121c2.075 1.278 3.352 3.036 3.352 5.113 0 2.237-1.596 4.634-4.47 6.232L384.72 516.603c-2.714 1.598-6.066 2.397-9.259 2.397Zm-80.615-269.567c-2.714 0-5.588.639-7.823 1.918l-179.27 105.142c-1.915 1.118-2.873 2.397-2.873 3.675 0 1.119.958 1.918 1.915 2.397l263.079 152.121c3.352 1.917 9.578 1.598 13.409-.64l179.43-105.142c1.916-1.118 2.874-2.397 2.874-3.675 0-1.118-.958-1.917-1.916-2.397L300.592 250.711c-1.596-.798-3.671-1.278-5.746-1.278Z" fill="url(#home-pc-illustration_svg__e)"></path>
        <path d="M593.523 177.847 363.808 45.221c-1.597-.959-3.193-1.119-4.63-.64l-4.31 1.439 1.437.32c-.639.638-1.118 1.597-1.437 2.556l-51.881 168.739c-1.277 4.154.638 9.268 4.15 11.345l229.715 132.786c.479.32 1.118.479 1.756.639l-.638 1.279 3.991-1.439c1.596-.639 3.033-2.077 3.671-4.314l51.882-168.739c1.436-4.154-.32-9.268-3.991-11.345Z" fill="url(#home-pc-illustration_svg__f)"></path>
        <path d="M528.711 368.158 302.029 237.129c-3.352-1.917-9.099-1.757-13.09.48l-146.545 84.689-4.949-1.918 1.437 6.871c.16.959.958 2.078 2.235 2.717l228.917 132.306c3.352 1.918 9.099 1.758 13.09-.479l146.864-84.849c1.756-1.118 2.873-2.397 3.193-3.675l1.436-6.711-5.906 1.598Z" fill="url(#home-pc-illustration_svg__g)"></path>
        <path d="M370.193 456.362 139.68 323.097c-3.352-1.918-2.873-5.273.958-7.51l147.982-85.488c3.831-2.238 9.738-2.557 13.09-.48l230.513 133.106c3.352 1.917 2.873 5.273-.958 7.51l-147.981 85.488c-3.832 2.397-9.738 2.557-13.091.639Z" fill="url(#home-pc-illustration_svg__h)"></path>
        <path d="m531.265 368.477-147.982 85.488c-3.831 2.237-9.738 2.557-13.09.48L139.68 321.339c-1.118-.639-1.756-1.438-2.075-2.397-.479 1.598.159 3.036 2.075 4.155l230.513 133.265c3.352 1.918 9.259 1.758 13.09-.479l147.982-85.488c2.554-1.438 3.512-3.516 3.033-5.114-.319 1.119-1.277 2.237-3.033 3.196Z" fill="#fff"></path>
        <g opacity="0.4" fill="#06033E">
          <path opacity="0.4" d="m249.669 301.525-7.822-4.474c-.639-.32-.479-.959.16-1.438l9.258-5.273c.799-.48 1.756-.48 2.395-.16l7.822 4.474c.639.32.479.959-.16 1.438l-9.258 5.273c-.639.48-1.756.48-2.395.16ZM261.642 308.556l-7.822-4.474c-.639-.32-.479-.959.159-1.439l9.259-5.273c.798-.479 1.756-.479 2.395-.159l7.822 4.474c.638.319.479.958-.16 1.438l-9.259 5.273c-.638.32-1.756.479-2.394.16ZM273.774 315.427l-7.823-4.474c-.638-.32-.478-.959.16-1.439l9.259-5.273c.798-.479 1.756-.479 2.394-.159l7.823 4.474c.638.319.478.958-.16 1.438l-9.259 5.273c-.798.479-1.916.479-2.394.16ZM290.376 309.674l-7.822-4.474c-.639-.319-.479-.959.16-1.438l7.662-4.474c.798-.48 1.756-.48 2.395-.16l7.822 4.474c.638.32.479.959-.16 1.438l-7.662 4.474c-.799.48-1.756.48-2.395.16ZM302.349 316.705l-7.822-4.474c-.639-.32-.479-.959.159-1.438l7.663-4.474c.798-.48 1.756-.48 2.394-.16l7.822 4.474c.639.32.479.959-.159 1.438l-7.663 4.474c-.638.48-1.756.48-2.394.16ZM314.321 323.576l-7.822-4.474c-.638-.32-.479-.959.16-1.438l7.662-4.474c.799-.48 1.756-.48 2.395-.16l7.822 4.474c.639.32.479.959-.16 1.438l-7.662 4.474c-.639.48-1.756.48-2.395.16ZM326.453 330.607l-7.822-4.474c-.638-.32-.479-.959.16-1.438l7.662-4.475c.798-.479 1.756-.479 2.395-.159l7.822 4.474c.638.319.479.959-.16 1.438l-7.662 4.474c-.798.32-1.756.479-2.395.16ZM338.426 337.478l-7.822-4.474c-.639-.32-.479-.959.159-1.438l7.663-4.475c.798-.479 1.756-.479 2.394-.159l7.823 4.474c.638.319.478.959-.16 1.438l-7.663 4.474c-.638.479-1.756.479-2.394.16ZM350.399 344.349l-7.823-4.474c-.638-.32-.478-.959.16-1.438l7.663-4.475c.798-.479 1.756-.479 2.394-.159l7.822 4.474c.639.319.479.959-.159 1.438l-7.663 4.474c-.638.479-1.756.639-2.394.16ZM362.531 351.38l-7.822-4.475c-.638-.319-.479-.958.16-1.438l7.662-4.474c.799-.479 1.756-.479 2.395-.16l7.822 4.475c.639.319.479.958-.16 1.438l-7.662 4.474c-.798.479-1.916.479-2.395.16ZM374.504 358.251l-7.822-4.475c-.639-.319-.479-.958.16-1.438l7.662-4.474c.798-.479 1.756-.479 2.395-.16l7.822 4.475c.638.319.479.958-.16 1.438l-7.662 4.474c-.639.479-1.756.639-2.395.16ZM386.477 365.281l-7.822-4.474c-.639-.319-.479-.959.159-1.438l7.663-4.474c.798-.479 1.756-.479 2.394-.16l7.822 4.474c.639.32.479.959-.159 1.438l-7.663 4.475c-.638.479-1.756.479-2.394.159ZM398.449 372.152l-7.822-4.474c-.638-.319-.479-.958.16-1.438l7.662-4.474c.799-.479 1.756-.479 2.395-.16l7.822 4.474c.639.32.479.959-.16 1.439l-7.662 4.474c-.639.479-1.756.639-2.395.159ZM308.095 306.478l-7.822-4.474c-.639-.319-.479-.958.159-1.438l7.663-4.474c.798-.479 1.756-.479 2.394-.16l7.822 4.474c.639.32.479.959-.159 1.438l-7.663 4.475c-.798.319-1.756.479-2.394.159ZM295.804 299.288l-7.822-4.474c-.639-.32-.479-.959.159-1.438l7.663-4.475c.798-.479 1.756-.479 2.394-.159l7.822 4.474c.639.319.479.959-.159 1.438l-7.663 4.474c-.638.479-1.756.639-2.394.16ZM283.671 292.257l-16.762-9.747c-.638-.32-.478-.959.16-1.438l7.663-4.474c.798-.48 1.756-.48 2.394-.16l16.762 9.747c.638.32.479.959-.16 1.438l-7.662 4.474c-.799.48-1.756.48-2.395.16ZM292.132 283.628l-13.569-7.829c-.639-.32-.479-.959.159-1.438l7.663-4.475c.798-.479 1.756-.479 2.394-.159l13.569 7.829c.639.32.479.959-.159 1.439l-7.663 4.474c-.638.479-1.756.639-2.394.159ZM320.067 313.349l-7.822-4.474c-.638-.319-.479-.958.16-1.438l7.662-4.474c.799-.479 1.756-.479 2.395-.16l7.822 4.474c.639.32.479.959-.159 1.439l-7.663 4.474c-.639.479-1.756.479-2.395.159ZM332.04 320.22l-7.822-4.474c-.639-.319-.479-.958.16-1.438l7.662-4.474c.798-.479 1.756-.479 2.395-.16l7.822 4.474c.638.32.479.959-.16 1.439l-7.662 4.474c-.639.479-1.756.639-2.395.159ZM344.173 327.251l-7.822-4.474c-.639-.32-.479-.959.159-1.438l7.663-4.474c.798-.48 1.756-.48 2.395-.16l7.822 4.474c.638.32.479.959-.16 1.438l-7.662 4.474c-.799.48-1.916.48-2.395.16ZM356.146 334.122l-7.823-4.474c-.638-.32-.478-.959.16-1.438l7.663-4.474c.798-.48 1.756-.48 2.394-.16l7.822 4.474c.639.32.479.959-.159 1.438l-7.663 4.474c-.638.48-1.756.64-2.394.16ZM368.118 341.153l-7.822-4.474c-.638-.32-.479-.959.16-1.438l7.662-4.474c.798-.48 1.756-.48 2.395-.16l7.822 4.474c.638.32.479.959-.16 1.438l-7.662 4.474c-.639.48-1.756.48-2.395.16ZM380.091 348.024l-7.822-4.474c-.639-.32-.479-.959.159-1.438l7.663-4.474c.798-.48 1.756-.48 2.394-.16l7.823 4.474c.638.32.478.959-.16 1.438l-7.663 4.474c-.638.48-1.756.639-2.394.16ZM392.223 355.055l-7.822-4.474c-.639-.32-.479-.959.159-1.438l7.663-4.475c.798-.479 1.756-.479 2.394-.159l7.822 4.474c.639.319.479.959-.159 1.438l-7.663 4.474c-.638.479-1.756.479-2.394.16ZM404.195 361.926l-7.822-4.474c-.638-.32-.479-.959.16-1.438l7.662-4.475c.799-.479 1.756-.479 2.395-.159l7.822 4.474c.639.319.479.959-.16 1.438l-7.662 4.474c-.639.479-1.756.639-2.395.16ZM416.168 368.957l-7.822-4.474c-.639-.32-.479-.959.16-1.439l7.662-4.474c.798-.479 1.756-.479 2.395-.16l7.822 4.475c.638.319.479.958-.16 1.438l-7.662 4.474c-.639.479-1.756.479-2.395.16ZM437.559 381.26l-16.921-9.747c-.639-.319-.479-.958.16-1.438l7.662-4.474c.798-.479 1.756-.479 2.395-.16l16.921 9.747c.638.32.479.959-.16 1.439l-7.662 4.474c-.639.479-1.756.479-2.395.159ZM461.026 367.678l-14.368-8.309c-.638-.319-.478-.959.16-1.438l7.663-4.474c.798-.479 1.756-.479 2.394-.16l14.367 8.309c.639.32.479.959-.159 1.438l-7.663 4.474c-.638.48-1.756.64-2.394.16ZM341.14 311.911l-7.822-4.474c-.639-.319-.479-.959.159-1.438l7.663-4.474c.798-.479 1.756-.479 2.394-.16l7.822 4.474c.639.32.479.959-.159 1.438l-7.663 4.475c-.638.479-1.756.639-2.394.159ZM328.848 304.881l-7.822-4.475c-.639-.319-.479-.958.159-1.438l7.663-4.474c.798-.479 1.756-.479 2.394-.16l7.822 4.474c.639.32.479.959-.159 1.439l-7.663 4.474c-.798.479-1.756.479-2.394.16ZM316.397 297.69l-7.823-4.474c-.638-.32-.478-.959.16-1.438l7.663-4.474c.798-.48 1.756-.48 2.394-.16l7.822 4.474c.639.319.479.959-.159 1.438l-7.663 4.474c-.638.48-1.756.639-2.394.16ZM304.105 290.659l-7.823-4.474c-.638-.32-.478-.959.16-1.438l7.663-4.474c.798-.48 1.756-.48 2.394-.16l7.822 4.474c.639.32.479.959-.159 1.438l-7.663 4.474c-.638.48-1.756.48-2.394.16ZM353.112 318.942l-7.822-4.474c-.638-.32-.479-.959.16-1.438l7.662-4.474c.799-.48 1.756-.48 2.395-.16l7.822 4.474c.639.32.479.959-.16 1.438l-7.662 4.474c-.639.48-1.756.48-2.395.16ZM365.085 325.813l-7.822-4.474c-.639-.32-.479-.959.16-1.438l7.662-4.474c.798-.48 1.756-.48 2.395-.16l7.822 4.474c.638.32.479.959-.16 1.438l-7.662 4.474c-.639.48-1.756.639-2.395.16ZM377.218 332.844l-7.822-4.474c-.639-.32-.479-.959.159-1.438l7.663-4.475c.798-.479 1.756-.479 2.394-.159l7.823 4.474c.638.319.478.959-.16 1.438l-7.663 4.474c-.638.479-1.756.479-2.394.16ZM389.191 339.715l-7.823-4.474c-.638-.32-.478-.959.16-1.438l7.663-4.474c.798-.48 1.756-.48 2.394-.16l7.822 4.474c.639.319.479.959-.159 1.438l-7.663 4.474c-.638.479-1.756.639-2.394.16ZM401.163 346.746l-7.822-4.474c-.638-.32-.479-.959.16-1.439l7.662-4.474c.798-.479 1.756-.479 2.395-.159l7.822 4.474c.638.319.479.958-.16 1.438l-7.662 4.474c-.639.479-1.756.479-2.395.16ZM413.295 353.617l-7.822-4.474c-.639-.32-.479-.959.16-1.439l7.662-4.474c.798-.479 1.756-.479 2.395-.159l7.822 4.474c.638.319.479.958-.16 1.438l-7.662 4.474c-.799.479-1.756.639-2.395.16ZM425.268 360.647l-7.822-4.474c-.639-.319-.479-.958.159-1.438l7.663-4.474c.798-.479 1.756-.479 2.394-.16l7.822 4.474c.639.32.479.959-.159 1.439l-7.663 4.474c-.638.479-1.756.479-2.394.159ZM437.24 367.518l-7.822-4.474c-.638-.319-.479-.958.16-1.438l7.662-4.474c.799-.479 1.756-.479 2.395-.16l7.822 4.474c.639.32.479.959-.16 1.439l-7.662 4.474c-.639.479-1.756.639-2.395.159ZM449.372 374.549l-7.822-4.474c-.638-.319-.479-.959.16-1.438l7.662-4.474c.798-.479 1.756-.479 2.395-.16l7.822 4.474c.638.32.479.959-.16 1.438l-7.662 4.474c-.798.48-1.916.48-2.395.16ZM334.754 294.814l-7.822-4.474c-.639-.32-.479-.959.16-1.439l7.662-4.474c.798-.479 1.756-.479 2.395-.159l7.822 4.474c.638.319.479.958-.16 1.438l-7.662 4.474c-.639.479-1.756.479-2.395.16ZM322.781 287.943l-7.822-4.474c-.638-.32-.479-.959.16-1.439l7.662-4.474c.799-.479 1.756-.479 2.395-.159l7.822 4.474c.639.319.479.958-.16 1.438l-7.662 4.474c-.639.479-1.756.479-2.395.16ZM310.809 280.912l-7.822-4.474c-.639-.32-.479-.959.159-1.438l7.663-4.474c.798-.48 1.756-.48 2.394-.16l7.822 4.474c.639.32.479.959-.159 1.438l-7.663 4.474c-.638.48-1.756.639-2.394.16ZM298.836 274.041l-7.822-4.474c-.639-.32-.479-.959.16-1.438l7.662-4.474c.798-.48 1.756-.48 2.395-.16l7.822 4.474c.638.319.479.959-.16 1.438l-7.662 4.474c-.639.48-1.756.48-2.395.16ZM311.129 267.01l-7.822-4.474c-.639-.32-.479-.959.16-1.438l2.554-1.438c.798-.48 1.756-.48 2.394-.16l7.822 4.474c.639.32.479.959-.159 1.438l-2.554 1.438c-.639.48-1.756.48-2.395.16ZM326.773 275.958l-7.823-4.474c-.638-.319-.478-.958.16-1.438l2.554-1.438c.798-.479 1.756-.479 2.395-.16l7.822 4.474c.638.32.479.959-.16 1.439l-2.554 1.438c-.638.479-1.756.479-2.394.159ZM338.745 282.829l-7.822-4.474c-.638-.319-.479-.958.16-1.438l2.554-1.438c.798-.479 1.756-.479 2.394-.16l7.823 4.474c.638.32.478.959-.16 1.439l-2.554 1.438c-.639.479-1.756.479-2.395.159ZM350.559 289.7l-7.822-4.474c-.639-.319-.479-.958.159-1.438l2.554-1.438c.799-.479 1.756-.479 2.395-.16l7.822 4.474c.639.32.479.959-.16 1.438l-2.554 1.439c-.638.479-1.756.639-2.394.159ZM362.531 296.571l-7.822-4.474c-.638-.319-.479-.958.16-1.438l2.554-1.438c.798-.479 1.756-.479 2.395-.16l7.822 4.474c.638.32.479.959-.16 1.439l-2.554 1.438c-.639.479-1.756.639-2.395.159ZM429.099 335.081l-7.822-4.474c-.639-.32-.479-.959.159-1.438l2.554-1.438c.799-.48 1.756-.48 2.395-.16l7.822 4.474c.639.32.479.959-.16 1.438l-2.554 1.438c-.798.48-1.756.48-2.394.16ZM440.912 341.952l-7.822-4.474c-.638-.32-.479-.959.16-1.438l2.554-1.438c.798-.48 1.756-.48 2.394-.16l7.823 4.474c.638.32.478.959-.16 1.438l-2.554 1.438c-.639.48-1.756.48-2.395.16ZM452.885 348.823l-7.822-4.474c-.639-.32-.479-.959.159-1.438l2.555-1.438c.798-.48 1.756-.48 2.394-.16l7.822 4.474c.639.32.479.959-.159 1.438l-2.555 1.438c-.638.48-1.756.48-2.394.16ZM464.858 355.694l-7.823-4.474c-.638-.32-.478-.959.16-1.438l2.554-1.438c.798-.48 1.756-.48 2.395-.16l7.822 4.474c.638.32.479.959-.16 1.438l-2.554 1.438c-.798.48-1.916.48-2.394.16ZM346.727 301.685l-7.822-4.474c-.639-.32-.479-.959.159-1.439l7.663-4.474c.798-.479 1.756-.479 2.394-.16l7.822 4.475c.639.319.479.958-.159 1.438l-7.663 4.474c-.638.479-1.756.639-2.394.16ZM358.859 308.716l-7.822-4.475c-.638-.319-.479-.958.16-1.438l7.662-4.474c.799-.479 1.756-.479 2.395-.16l7.822 4.475c.639.319.479.958-.159 1.438l-7.663 4.474c-.639.479-1.756.479-2.395.16ZM370.832 315.587l-7.822-4.475c-.639-.319-.479-.958.16-1.438l7.662-4.474c.798-.479 1.756-.479 2.395-.16l7.822 4.475c.638.319.479.958-.16 1.438l-7.662 4.474c-.639.479-1.756.639-2.395.16ZM382.805 322.617l-7.822-4.474c-.639-.319-.479-.959.159-1.438l7.663-4.474c.798-.479 1.756-.479 2.394-.16l7.822 4.474c.639.32.479.959-.159 1.438l-7.663 4.475c-.638.479-1.756.479-2.394.159ZM394.937 329.488l-7.823-4.474c-.638-.319-.478-.959.16-1.438l7.663-4.474c.798-.48 1.756-.479 2.394-.16l7.822 4.474c.639.32.479.959-.159 1.438l-7.663 4.475c-.798.479-1.756.639-2.394.159ZM406.909 336.519l-7.822-4.474c-.638-.32-.479-.959.16-1.438l7.662-4.474c.798-.48 1.756-.48 2.395-.16l7.822 4.474c.638.32.479.959-.16 1.438l-7.662 4.474c-.639.48-1.756.48-2.395.16ZM418.882 343.39l-7.822-4.474c-.639-.32-.479-.959.159-1.438l7.663-4.474c.798-.48 1.756-.48 2.394-.16l7.823 4.474c.638.32.478.959-.16 1.438l-7.663 4.474c-.638.48-1.756.64-2.394.16ZM431.015 350.421l-7.822-4.474c-.639-.32-.479-.959.159-1.438l7.663-4.474c.798-.48 1.756-.48 2.394-.16l7.822 4.474c.639.319.479.959-.159 1.438l-7.663 4.474c-.798.479-1.756.479-2.394.16ZM442.987 357.292l-7.822-4.474c-.638-.32-.479-.959.16-1.438l7.662-4.475c.799-.479 1.756-.479 2.395-.159l7.822 4.474c.639.319.479.959-.16 1.438l-7.662 4.474c-.639.479-1.756.479-2.395.16ZM278.084 302.643l-22.987-13.262c-.639-.32-.479-.959.16-1.438l7.662-4.474c.798-.48 1.756-.48 2.395-.16l22.987 13.262c.639.32.479.959-.16 1.439l-7.662 4.474c-.639.479-1.756.479-2.395.159ZM425.747 387.972l-22.988-13.263c-.639-.32-.479-.959.16-1.438l7.662-4.474c.798-.48 1.756-.48 2.395-.16l22.987 13.263c.639.319.479.958-.159 1.438l-7.663 4.474c-.638.479-1.756.479-2.394.16ZM377.696 375.508l-7.822-4.474c-.638-.32-.479-.959.16-1.438l9.259-5.273c.798-.48 1.756-.48 2.394-.16l7.822 4.474c.639.32.479.959-.159 1.438l-9.259 5.273c-.639.48-1.756.48-2.395.16ZM290.376 325.014l-12.452-7.19c-.638-.32-.479-.959.16-1.439l9.259-5.273c.798-.479 1.756-.479 2.394-.159l12.452 7.19c.638.32.478.959-.16 1.438l-9.259 5.273c-.638.48-1.756.64-2.394.16ZM366.043 368.797l-12.452-7.191c-.638-.319-.479-.959.16-1.438l9.259-5.273c.798-.479 1.756-.479 2.394-.16l12.452 7.191c.638.319.479.958-.16 1.438l-9.259 5.273c-.638.479-1.756.479-2.394.16ZM307.776 335.081l-12.452-7.191c-.638-.319-.478-.958.16-1.438l9.259-5.273c.798-.479 1.756-.479 2.394-.16l12.452 7.191c.639.32.479.959-.16 1.438l-9.258 5.273c-.799.48-1.756.48-2.395.16Z"></path>
          <path opacity="0.4" d="m307.138 321.179 54.116 31.319c.639.32.639.959 0 1.438l-9.418 5.433c-.639.32-1.756.32-2.395 0l-54.116-31.479 11.813-6.711ZM411.22 388.131l8.62 4.954c.479.32.479.799-.159 1.118l-3.832 2.238c-.638.319-1.436.319-2.075.159l-8.62-4.953c-.479-.32-.479-.799.159-1.119l3.832-2.237c.798-.479 1.596-.479 2.075-.16ZM399.088 381.101l8.62 4.953c.479.32.479.799-.159 1.119l-3.831 2.237c-.639.319-1.437.319-2.076.16l-8.62-4.954c-.479-.32-.479-.799.16-1.118l3.831-2.238c.798-.479 1.596-.479 2.075-.159ZM387.116 374.23l8.62 4.953c.479.32.479.799-.16 1.119l-3.831 2.237c-.639.319-1.437.319-2.075.16l-8.621-4.954c-.479-.32-.479-.799.16-1.118l3.831-2.238c.639-.479 1.597-.479 2.076-.159ZM405.792 377.266l8.621 4.953c.479.32.478.799-.16 1.119l-3.831 2.237c-.639.319-1.437.319-2.076.16l-8.62-4.954c-.479-.319-.479-.799.16-1.118l3.831-2.238c.639-.479 1.596-.479 2.075-.159Z"></path></g><g opacity="0.4" fill="#06033E">
          <path opacity="0.4" d="m249.669 301.525-7.822-4.474c-.639-.32-.479-.959.16-1.438l9.258-5.273c.799-.48 1.756-.48 2.395-.16l7.822 4.474c.639.32.479.959-.16 1.438l-9.258 5.273c-.639.48-1.756.48-2.395.16ZM261.642 308.556l-7.822-4.474c-.639-.32-.479-.959.159-1.439l9.259-5.273c.798-.479 1.756-.479 2.395-.159l7.822 4.474c.638.319.479.958-.16 1.438l-9.259 5.273c-.638.32-1.756.479-2.394.16ZM273.774 315.427l-7.823-4.474c-.638-.32-.478-.959.16-1.439l9.259-5.273c.798-.479 1.756-.479 2.394-.159l7.823 4.474c.638.319.478.958-.16 1.438l-9.259 5.273c-.798.479-1.916.479-2.394.16ZM290.376 309.674l-7.822-4.474c-.639-.319-.479-.959.16-1.438l7.662-4.474c.798-.48 1.756-.48 2.395-.16l7.822 4.474c.638.32.479.959-.16 1.438l-7.662 4.474c-.799.48-1.756.48-2.395.16ZM302.349 316.705l-7.822-4.474c-.639-.32-.479-.959.159-1.438l7.663-4.474c.798-.48 1.756-.48 2.394-.16l7.822 4.474c.639.32.479.959-.159 1.438l-7.663 4.474c-.638.48-1.756.48-2.394.16ZM314.321 323.576l-7.822-4.474c-.638-.32-.479-.959.16-1.438l7.662-4.474c.799-.48 1.756-.48 2.395-.16l7.822 4.474c.639.32.479.959-.16 1.438l-7.662 4.474c-.639.48-1.756.48-2.395.16ZM326.453 330.607l-7.822-4.474c-.638-.32-.479-.959.16-1.438l7.662-4.475c.798-.479 1.756-.479 2.395-.159l7.822 4.474c.638.319.479.959-.16 1.438l-7.662 4.474c-.798.32-1.756.479-2.395.16ZM338.426 337.478l-7.822-4.474c-.639-.32-.479-.959.159-1.438l7.663-4.475c.798-.479 1.756-.479 2.394-.159l7.823 4.474c.638.319.478.959-.16 1.438l-7.663 4.474c-.638.479-1.756.479-2.394.16ZM350.399 344.349l-7.823-4.474c-.638-.32-.478-.959.16-1.438l7.663-4.475c.798-.479 1.756-.479 2.394-.159l7.822 4.474c.639.319.479.959-.159 1.438l-7.663 4.474c-.638.479-1.756.639-2.394.16ZM362.531 351.38l-7.822-4.475c-.638-.319-.479-.958.16-1.438l7.662-4.474c.799-.479 1.756-.479 2.395-.16l7.822 4.475c.639.319.479.958-.16 1.438l-7.662 4.474c-.798.479-1.916.479-2.395.16ZM374.504 358.251l-7.822-4.475c-.639-.319-.479-.958.16-1.438l7.662-4.474c.798-.479 1.756-.479 2.395-.16l7.822 4.475c.638.319.479.958-.16 1.438l-7.662 4.474c-.639.479-1.756.639-2.395.16ZM386.477 365.281l-7.822-4.474c-.639-.319-.479-.959.159-1.438l7.663-4.474c.798-.479 1.756-.479 2.394-.16l7.822 4.474c.639.32.479.959-.159 1.438l-7.663 4.475c-.638.479-1.756.479-2.394.159ZM398.449 372.152l-7.822-4.474c-.638-.319-.479-.958.16-1.438l7.662-4.474c.799-.479 1.756-.479 2.395-.16l7.822 4.474c.639.32.479.959-.16 1.439l-7.662 4.474c-.639.479-1.756.639-2.395.159ZM308.095 306.478l-7.822-4.474c-.639-.319-.479-.958.159-1.438l7.663-4.474c.798-.479 1.756-.479 2.394-.16l7.822 4.474c.639.32.479.959-.159 1.438l-7.663 4.475c-.798.319-1.756.479-2.394.159ZM295.804 299.288l-7.822-4.474c-.639-.32-.479-.959.159-1.438l7.663-4.475c.798-.479 1.756-.479 2.394-.159l7.822 4.474c.639.319.479.959-.159 1.438l-7.663 4.474c-.638.479-1.756.639-2.394.16ZM283.671 292.257l-16.762-9.747c-.638-.32-.478-.959.16-1.438l7.663-4.474c.798-.48 1.756-.48 2.394-.16l16.762 9.747c.638.32.479.959-.16 1.438l-7.662 4.474c-.799.48-1.756.48-2.395.16ZM292.132 283.628l-13.569-7.829c-.639-.32-.479-.959.159-1.438l7.663-4.475c.798-.479 1.756-.479 2.394-.159l13.569 7.829c.639.32.479.959-.159 1.439l-7.663 4.474c-.638.479-1.756.639-2.394.159ZM320.067 313.349l-7.822-4.474c-.638-.319-.479-.958.16-1.438l7.662-4.474c.799-.479 1.756-.479 2.395-.16l7.822 4.474c.639.32.479.959-.159 1.439l-7.663 4.474c-.639.479-1.756.479-2.395.159ZM332.04 320.22l-7.822-4.474c-.639-.319-.479-.958.16-1.438l7.662-4.474c.798-.479 1.756-.479 2.395-.16l7.822 4.474c.638.32.479.959-.16 1.439l-7.662 4.474c-.639.479-1.756.639-2.395.159ZM344.173 327.251l-7.822-4.474c-.639-.32-.479-.959.159-1.438l7.663-4.474c.798-.48 1.756-.48 2.395-.16l7.822 4.474c.638.32.479.959-.16 1.438l-7.662 4.474c-.799.48-1.916.48-2.395.16ZM356.146 334.122l-7.823-4.474c-.638-.32-.478-.959.16-1.438l7.663-4.474c.798-.48 1.756-.48 2.394-.16l7.822 4.474c.639.32.479.959-.159 1.438l-7.663 4.474c-.638.48-1.756.64-2.394.16ZM368.118 341.153l-7.822-4.474c-.638-.32-.479-.959.16-1.438l7.662-4.474c.798-.48 1.756-.48 2.395-.16l7.822 4.474c.638.32.479.959-.16 1.438l-7.662 4.474c-.639.48-1.756.48-2.395.16ZM380.091 348.024l-7.822-4.474c-.639-.32-.479-.959.159-1.438l7.663-4.474c.798-.48 1.756-.48 2.394-.16l7.823 4.474c.638.32.478.959-.16 1.438l-7.663 4.474c-.638.48-1.756.639-2.394.16ZM392.223 355.055l-7.822-4.474c-.639-.32-.479-.959.159-1.438l7.663-4.475c.798-.479 1.756-.479 2.394-.159l7.822 4.474c.639.319.479.959-.159 1.438l-7.663 4.474c-.638.479-1.756.479-2.394.16ZM404.195 361.926l-7.822-4.474c-.638-.32-.479-.959.16-1.438l7.662-4.475c.799-.479 1.756-.479 2.395-.159l7.822 4.474c.639.319.479.959-.16 1.438l-7.662 4.474c-.639.479-1.756.639-2.395.16ZM416.168 368.957l-7.822-4.474c-.639-.32-.479-.959.16-1.439l7.662-4.474c.798-.479 1.756-.479 2.395-.16l7.822 4.475c.638.319.479.958-.16 1.438l-7.662 4.474c-.639.479-1.756.479-2.395.16ZM437.559 381.26l-16.921-9.747c-.639-.319-.479-.958.16-1.438l7.662-4.474c.798-.479 1.756-.479 2.395-.16l16.921 9.747c.638.32.479.959-.16 1.439l-7.662 4.474c-.639.479-1.756.479-2.395.159ZM461.026 367.678l-14.368-8.309c-.638-.319-.478-.959.16-1.438l7.663-4.474c.798-.479 1.756-.479 2.394-.16l14.367 8.309c.639.32.479.959-.159 1.438l-7.663 4.474c-.638.48-1.756.64-2.394.16ZM341.14 311.911l-7.822-4.474c-.639-.319-.479-.959.159-1.438l7.663-4.474c.798-.479 1.756-.479 2.394-.16l7.822 4.474c.639.32.479.959-.159 1.438l-7.663 4.475c-.638.479-1.756.639-2.394.159ZM328.848 304.881l-7.822-4.475c-.639-.319-.479-.958.159-1.438l7.663-4.474c.798-.479 1.756-.479 2.394-.16l7.822 4.474c.639.32.479.959-.159 1.439l-7.663 4.474c-.798.479-1.756.479-2.394.16ZM316.397 297.69l-7.823-4.474c-.638-.32-.478-.959.16-1.438l7.663-4.474c.798-.48 1.756-.48 2.394-.16l7.822 4.474c.639.319.479.959-.159 1.438l-7.663 4.474c-.638.48-1.756.639-2.394.16ZM304.105 290.659l-7.823-4.474c-.638-.32-.478-.959.16-1.438l7.663-4.474c.798-.48 1.756-.48 2.394-.16l7.822 4.474c.639.32.479.959-.159 1.438l-7.663 4.474c-.638.48-1.756.48-2.394.16ZM353.112 318.942l-7.822-4.474c-.638-.32-.479-.959.16-1.438l7.662-4.474c.799-.48 1.756-.48 2.395-.16l7.822 4.474c.639.32.479.959-.16 1.438l-7.662 4.474c-.639.48-1.756.48-2.395.16ZM365.085 325.813l-7.822-4.474c-.639-.32-.479-.959.16-1.438l7.662-4.474c.798-.48 1.756-.48 2.395-.16l7.822 4.474c.638.32.479.959-.16 1.438l-7.662 4.474c-.639.48-1.756.639-2.395.16ZM377.218 332.844l-7.822-4.474c-.639-.32-.479-.959.159-1.438l7.663-4.475c.798-.479 1.756-.479 2.394-.159l7.823 4.474c.638.319.478.959-.16 1.438l-7.663 4.474c-.638.479-1.756.479-2.394.16ZM389.191 339.715l-7.823-4.474c-.638-.32-.478-.959.16-1.438l7.663-4.474c.798-.48 1.756-.48 2.394-.16l7.822 4.474c.639.319.479.959-.159 1.438l-7.663 4.474c-.638.479-1.756.639-2.394.16ZM401.163 346.746l-7.822-4.474c-.638-.32-.479-.959.16-1.439l7.662-4.474c.798-.479 1.756-.479 2.395-.159l7.822 4.474c.638.319.479.958-.16 1.438l-7.662 4.474c-.639.479-1.756.479-2.395.16ZM413.295 353.617l-7.822-4.474c-.639-.32-.479-.959.16-1.439l7.662-4.474c.798-.479 1.756-.479 2.395-.159l7.822 4.474c.638.319.479.958-.16 1.438l-7.662 4.474c-.799.479-1.756.639-2.395.16ZM425.268 360.647l-7.822-4.474c-.639-.319-.479-.958.159-1.438l7.663-4.474c.798-.479 1.756-.479 2.394-.16l7.822 4.474c.639.32.479.959-.159 1.439l-7.663 4.474c-.638.479-1.756.479-2.394.159ZM437.24 367.518l-7.822-4.474c-.638-.319-.479-.958.16-1.438l7.662-4.474c.799-.479 1.756-.479 2.395-.16l7.822 4.474c.639.32.479.959-.16 1.439l-7.662 4.474c-.639.479-1.756.639-2.395.159ZM449.372 374.549l-7.822-4.474c-.638-.319-.479-.959.16-1.438l7.662-4.474c.798-.479 1.756-.479 2.395-.16l7.822 4.474c.638.32.479.959-.16 1.438l-7.662 4.474c-.798.48-1.916.48-2.395.16ZM334.754 294.814l-7.822-4.474c-.639-.32-.479-.959.16-1.439l7.662-4.474c.798-.479 1.756-.479 2.395-.159l7.822 4.474c.638.319.479.958-.16 1.438l-7.662 4.474c-.639.479-1.756.479-2.395.16ZM322.781 287.943l-7.822-4.474c-.638-.32-.479-.959.16-1.439l7.662-4.474c.799-.479 1.756-.479 2.395-.159l7.822 4.474c.639.319.479.958-.16 1.438l-7.662 4.474c-.639.479-1.756.479-2.395.16ZM310.809 280.912l-7.822-4.474c-.639-.32-.479-.959.159-1.438l7.663-4.474c.798-.48 1.756-.48 2.394-.16l7.822 4.474c.639.32.479.959-.159 1.438l-7.663 4.474c-.638.48-1.756.639-2.394.16ZM298.836 274.041l-7.822-4.474c-.639-.32-.479-.959.16-1.438l7.662-4.474c.798-.48 1.756-.48 2.395-.16l7.822 4.474c.638.319.479.959-.16 1.438l-7.662 4.474c-.639.48-1.756.48-2.395.16ZM311.129 267.01l-7.822-4.474c-.639-.32-.479-.959.16-1.438l2.554-1.438c.798-.48 1.756-.48 2.394-.16l7.822 4.474c.639.32.479.959-.159 1.438l-2.554 1.438c-.639.48-1.756.48-2.395.16ZM326.773 275.958l-7.823-4.474c-.638-.319-.478-.958.16-1.438l2.554-1.438c.798-.479 1.756-.479 2.395-.16l7.822 4.474c.638.32.479.959-.16 1.439l-2.554 1.438c-.638.479-1.756.479-2.394.159ZM338.745 282.829l-7.822-4.474c-.638-.319-.479-.958.16-1.438l2.554-1.438c.798-.479 1.756-.479 2.394-.16l7.823 4.474c.638.32.478.959-.16 1.439l-2.554 1.438c-.639.479-1.756.479-2.395.159ZM350.559 289.7l-7.822-4.474c-.639-.319-.479-.958.159-1.438l2.554-1.438c.799-.479 1.756-.479 2.395-.16l7.822 4.474c.639.32.479.959-.16 1.438l-2.554 1.439c-.638.479-1.756.639-2.394.159ZM362.531 296.571l-7.822-4.474c-.638-.319-.479-.958.16-1.438l2.554-1.438c.798-.479 1.756-.479 2.395-.16l7.822 4.474c.638.32.479.959-.16 1.439l-2.554 1.438c-.639.479-1.756.639-2.395.159ZM429.099 335.081l-7.822-4.474c-.639-.32-.479-.959.159-1.438l2.554-1.438c.799-.48 1.756-.48 2.395-.16l7.822 4.474c.639.32.479.959-.16 1.438l-2.554 1.438c-.798.48-1.756.48-2.394.16ZM440.912 341.952l-7.822-4.474c-.638-.32-.479-.959.16-1.438l2.554-1.438c.798-.48 1.756-.48 2.394-.16l7.823 4.474c.638.32.478.959-.16 1.438l-2.554 1.438c-.639.48-1.756.48-2.395.16ZM452.885 348.823l-7.822-4.474c-.639-.32-.479-.959.159-1.438l2.555-1.438c.798-.48 1.756-.48 2.394-.16l7.822 4.474c.639.32.479.959-.159 1.438l-2.555 1.438c-.638.48-1.756.48-2.394.16ZM464.858 355.694l-7.823-4.474c-.638-.32-.478-.959.16-1.438l2.554-1.438c.798-.48 1.756-.48 2.395-.16l7.822 4.474c.638.32.479.959-.16 1.438l-2.554 1.438c-.798.48-1.916.48-2.394.16ZM346.727 301.685l-7.822-4.474c-.639-.32-.479-.959.159-1.439l7.663-4.474c.798-.479 1.756-.479 2.394-.16l7.822 4.475c.639.319.479.958-.159 1.438l-7.663 4.474c-.638.479-1.756.639-2.394.16ZM358.859 308.716l-7.822-4.475c-.638-.319-.479-.958.16-1.438l7.662-4.474c.799-.479 1.756-.479 2.395-.16l7.822 4.475c.639.319.479.958-.159 1.438l-7.663 4.474c-.639.479-1.756.479-2.395.16ZM370.832 315.587l-7.822-4.475c-.639-.319-.479-.958.16-1.438l7.662-4.474c.798-.479 1.756-.479 2.395-.16l7.822 4.475c.638.319.479.958-.16 1.438l-7.662 4.474c-.639.479-1.756.639-2.395.16ZM382.805 322.617l-7.822-4.474c-.639-.319-.479-.959.159-1.438l7.663-4.474c.798-.479 1.756-.479 2.394-.16l7.822 4.474c.639.32.479.959-.159 1.438l-7.663 4.475c-.638.479-1.756.479-2.394.159ZM394.937 329.488l-7.823-4.474c-.638-.319-.478-.959.16-1.438l7.663-4.474c.798-.48 1.756-.479 2.394-.16l7.822 4.474c.639.32.479.959-.159 1.438l-7.663 4.475c-.798.479-1.756.639-2.394.159ZM406.909 336.519l-7.822-4.474c-.638-.32-.479-.959.16-1.438l7.662-4.474c.798-.48 1.756-.48 2.395-.16l7.822 4.474c.638.32.479.959-.16 1.438l-7.662 4.474c-.639.48-1.756.48-2.395.16ZM418.882 343.39l-7.822-4.474c-.639-.32-.479-.959.159-1.438l7.663-4.474c.798-.48 1.756-.48 2.394-.16l7.823 4.474c.638.32.478.959-.16 1.438l-7.663 4.474c-.638.48-1.756.64-2.394.16ZM431.015 350.421l-7.822-4.474c-.639-.32-.479-.959.159-1.438l7.663-4.474c.798-.48 1.756-.48 2.394-.16l7.822 4.474c.639.319.479.959-.159 1.438l-7.663 4.474c-.798.479-1.756.479-2.394.16ZM442.987 357.292l-7.822-4.474c-.638-.32-.479-.959.16-1.438l7.662-4.475c.799-.479 1.756-.479 2.395-.159l7.822 4.474c.639.319.479.959-.16 1.438l-7.662 4.474c-.639.479-1.756.479-2.395.16ZM278.084 302.643l-22.987-13.262c-.639-.32-.479-.959.16-1.438l7.662-4.474c.798-.48 1.756-.48 2.395-.16l22.987 13.262c.639.32.479.959-.16 1.439l-7.662 4.474c-.639.479-1.756.479-2.395.159ZM425.747 387.972l-22.988-13.263c-.639-.32-.479-.959.16-1.438l7.662-4.474c.798-.48 1.756-.48 2.395-.16l22.987 13.263c.639.319.479.958-.159 1.438l-7.663 4.474c-.638.479-1.756.479-2.394.16ZM377.696 375.508l-7.822-4.474c-.638-.32-.479-.959.16-1.438l9.259-5.273c.798-.48 1.756-.48 2.394-.16l7.822 4.474c.639.32.479.959-.159 1.438l-9.259 5.273c-.639.48-1.756.48-2.395.16ZM290.376 325.014l-12.452-7.19c-.638-.32-.479-.959.16-1.439l9.259-5.273c.798-.479 1.756-.479 2.394-.159l12.452 7.19c.638.32.478.959-.16 1.438l-9.259 5.273c-.638.48-1.756.64-2.394.16ZM366.043 368.797l-12.452-7.191c-.638-.319-.479-.959.16-1.438l9.259-5.273c.798-.479 1.756-.479 2.394-.16l12.452 7.191c.638.319.479.958-.16 1.438l-9.259 5.273c-.638.479-1.756.479-2.394.16ZM307.776 335.081l-12.452-7.191c-.638-.319-.478-.958.16-1.438l9.259-5.273c.798-.479 1.756-.479 2.394-.16l12.452 7.191c.639.32.479.959-.16 1.438l-9.258 5.273c-.799.48-1.756.48-2.395.16Z"></path>
          <path opacity="0.4" d="m307.138 321.179 54.116 31.319c.639.32.639.959 0 1.438l-9.418 5.433c-.639.32-1.756.32-2.395 0l-54.116-31.479 11.813-6.711ZM411.22 388.131l8.62 4.954c.479.32.479.799-.159 1.118l-3.832 2.238c-.638.319-1.436.319-2.075.159l-8.62-4.953c-.479-.32-.479-.799.159-1.119l3.832-2.237c.798-.479 1.596-.479 2.075-.16ZM399.088 381.101l8.62 4.953c.479.32.479.799-.159 1.119l-3.831 2.237c-.639.319-1.437.319-2.076.16l-8.62-4.954c-.479-.32-.479-.799.16-1.118l3.831-2.238c.798-.479 1.596-.479 2.075-.159ZM387.116 374.23l8.62 4.953c.479.32.479.799-.16 1.119l-3.831 2.237c-.639.319-1.437.319-2.075.16l-8.621-4.954c-.479-.32-.479-.799.16-1.118l3.831-2.238c.639-.479 1.597-.479 2.076-.159ZM405.792 377.266l8.621 4.953c.479.32.478.799-.16 1.119l-3.831 2.237c-.639.319-1.437.319-2.076.16l-8.62-4.954c-.479-.319-.479-.799.16-1.118l3.831-2.238c.639-.479 1.596-.479 2.075-.159Z"></path></g>
          <path d="M533.021 363.204 303.306 230.578c-3.672-2.077-5.427-7.191-4.15-11.345l51.881-168.74c1.277-4.154 5.268-5.911 8.94-3.834l229.714 132.786c3.672 2.077 5.428 7.19 4.151 11.345l-51.881 168.739c-1.277 4.155-5.268 5.752-8.94 3.675Z" fill="url(#home-pc-illustration_svg__i)"></path><path d="M530.786 357.292 308.095 228.501c-3.512-1.918-5.268-6.871-3.99-10.866l49.646-161.389c1.277-3.995 5.108-5.592 8.461-3.675l222.691 128.791c3.512 1.918 5.268 6.871 3.991 10.866l-49.647 161.389c-1.117 3.994-4.949 5.752-8.461 3.675Z" fill="url(#home-pc-illustration_svg__j)"></path><path opacity="0.4" d="M530.786 357.292 308.095 228.501c-3.512-1.918-5.268-6.871-3.99-10.866l49.646-161.389c1.277-3.995 5.108-5.592 8.461-3.675l222.691 128.791c3.512 1.918 5.268 6.871 3.991 10.866l-49.647 161.389c-1.117 3.994-4.949 5.752-8.461 3.675Z" fill="#06033E"></path><path opacity="0.4" d="M530.786 357.292 308.095 228.501c-3.512-1.918-5.268-6.871-3.99-10.866l49.646-161.389c1.277-3.995 5.108-5.592 8.461-3.675l222.691 128.791c3.512 1.918 5.268 6.871 3.991 10.866l-49.647 161.389c-1.117 3.994-4.949 5.752-8.461 3.675Z" fill="#06033E"></path><path opacity="0.5" d="m518.814 307.917-150.856-87.086c-2.394-1.438-3.671-4.634-2.713-7.51l34.162-110.895c.798-2.717 3.512-3.835 5.746-2.557l150.856 87.086c2.394 1.438 3.671 4.634 2.713 7.51L524.561 305.36c-.639 2.876-3.353 3.995-5.747 2.557Z" fill="#06033E"></path><path d="m498.54 310.633-150.855-87.086c-2.395-1.438-3.672-4.634-2.714-7.51l34.162-110.895c.798-2.716 3.512-3.835 5.747-2.556l150.855 87.085c2.395 1.439 3.672 4.634 2.714 7.511l-34.162 110.894c-.798 2.877-3.352 3.995-5.747 2.557Z" fill="url(#home-pc-illustration_svg__k)"></path><path opacity="0.5" d="m498.54 310.633-150.855-87.086c-2.395-1.438-3.672-4.634-2.714-7.51l34.162-110.895c.798-2.716 3.512-3.835 5.747-2.556l150.855 87.085c2.395 1.439 3.672 4.634 2.714 7.511l-34.162 110.894c-.798 2.877-3.352 3.995-5.747 2.557Z" fill="#06033E"></path><path d="M535.735 189.831 384.88 102.745c-1.437-.799-3.034-.799-4.311.16.639 0 1.437.16 2.235.48l150.855 87.085c2.395 1.439 3.672 4.634 2.714 7.511l-34.162 110.894c-.319.959-.798 1.758-1.596 2.397 1.596 0 3.033-1.118 3.672-3.036l34.161-110.895c.799-2.716-.478-6.072-2.713-7.51Z" fill="#fff"></path><path opacity="0.4" d="M308.255 401.234c-2.075 0-3.991-.479-5.587-1.278l-60.342-34.834c-1.597-.959-2.555-2.237-2.555-3.676 0-1.757 1.278-3.355 3.353-4.634l31.129-17.896c3.831-2.237 9.418-2.397 12.77-.479l60.343 34.834c1.596.959 2.554 2.237 2.554 3.675 0 1.758-1.277 3.356-3.353 4.634l-31.128 17.897c-2.076 1.118-4.63 1.757-7.184 1.757Zm-26.819-62.638c-2.235 0-4.47.48-6.226 1.598l-31.128 17.897c-1.597.959-2.395 2.077-2.395 3.036 0 1.118.798 1.758 1.596 2.237l60.343 34.994c2.713 1.598 7.822 1.438 11.014-.479l31.129-17.897c1.597-.959 2.395-2.077 2.395-3.036 0-1.118-.798-1.758-1.597-2.237l-60.342-34.834c-1.277-.959-3.033-1.279-4.789-1.279Z" fill="#06033E"></path><path d="m421.596 160.909-9.259-5.433c-.798-.479-1.277-1.757-.958-2.716.32-.959 1.277-1.438 2.076-.799l9.258 5.433c.799.479 1.277 1.757.958 2.716-.319.959-1.117 1.278-2.075.799ZM443.785 173.692l-13.728-7.989c-.798-.48-1.277-1.758-.958-2.717.319-.958 1.277-1.438 2.075-.799l13.729 7.99c.798.479 1.277 1.758.958 2.716-.16.959-1.118 1.279-2.076.799ZM402.759 202.455l-9.259-5.433c-.798-.48-1.277-1.758-.958-2.717.32-.958 1.277-1.438 2.076-.799l9.259 5.433c.798.48 1.277 1.758.957 2.717-.159.958-1.117 1.278-2.075.799ZM422.554 213.8l-13.729-7.99c-.798-.479-1.277-1.757-.957-2.716.319-.959 1.277-1.438 2.075-.799l13.728 7.989c.799.48 1.278 1.758.958 2.717-.159.959-1.117 1.438-2.075.799ZM393.659 153.559l-5.747-3.356c-.798-.479-1.277-1.758-.958-2.716.32-.959 1.278-1.438 2.076-.799l5.747 3.355c.798.48 1.277 1.758.957 2.717-.319.799-1.117 1.278-2.075.799ZM411.22 172.414l-17.72-10.227c-.798-.479-1.277-1.757-.958-2.716.32-.959 1.277-1.438 2.076-.799l17.719 10.227c.798.479 1.277 1.757.958 2.716-.319.799-1.277 1.278-2.075.799ZM394.777 180.404l-5.747-3.356c-.798-.479-1.277-1.758-.957-2.716.319-.959 1.277-1.439 2.075-.799l5.747 3.355c.798.48 1.277 1.758.958 2.717-.32.799-1.118 1.278-2.076.799ZM424.789 232.655l-15.485-8.948c-.798-.48-1.277-1.758-.958-2.717.319-.958 1.277-1.438 2.075-.799l15.485 8.949c.798.479 1.277 1.757.958 2.716-.319.799-1.277 1.279-2.075.799ZM388.232 193.986l-3.671-2.237c-.798-.48-1.277-1.758-.958-2.717.319-.958 1.277-1.438 2.075-.799l3.672 2.237c.798.48 1.277 1.758.958 2.717-.16.959-1.118 1.278-2.076.799ZM384.72 209.485l-4.629-2.716c-.798-.479-1.277-1.758-.958-2.716.319-.959 1.277-1.439 2.075-.799l4.63 2.716c.798.479 1.277 1.758.958 2.717-.32.958-1.118 1.278-2.076.798ZM402.759 219.872l-12.292-7.031c-.798-.479-1.277-1.758-.958-2.716.319-.959 1.277-1.438 2.075-.799l12.292 7.03c.798.48 1.277 1.758.958 2.717-.159.959-1.117 1.278-2.075.799ZM386.636 219.393l-8.78-5.114c-.799-.479-1.277-1.757-.958-2.716.319-.959 1.277-1.438 2.075-.799l8.78 5.113c.798.479 1.277 1.758.958 2.717-.16.799-1.118 1.278-2.075.799ZM438.039 240.325l-5.588-3.196c-.798-.479-1.277-1.757-.957-2.716.319-.959 1.277-1.438 2.075-.799l5.587 3.196c.798.479 1.277 1.757.958 2.716-.16.959-1.118 1.278-2.075.799ZM416.488 192.867l-15.485-8.948c-.798-.479-1.277-1.758-.958-2.716.32-.959 1.277-1.439 2.076-.799l15.484 8.948c.798.479 1.277 1.758.958 2.716-.319.959-1.277 1.279-2.075.799Z" fill="#fff"></path><path d="m418.244 185.197-27.138-15.659c-.798-.48-1.277-1.758-.958-2.717.319-.958 1.277-1.438 2.075-.799l27.138 15.66c.798.479 1.277 1.758.958 2.716-.16.959-1.118 1.279-2.075.799ZM402.281 193.347l-15.485-8.949c-.798-.479-1.277-1.757-.958-2.716.32-.959 1.277-1.438 2.076-.799l15.484 8.948c.798.48 1.277 1.758.958 2.717-.319.958-1.117 1.438-2.075.799ZM428.301 199.738l-5.587-3.195c-.798-.48-1.277-1.758-.958-2.717.32-.959 1.277-1.438 2.076-.799l5.587 3.196c.798.479 1.277 1.758.958 2.716-.32.799-1.278 1.279-2.076.799ZM485.77 197.981l-33.524-19.335c-.798-.479-1.277-1.758-.958-2.717.32-.958 1.278-1.438 2.076-.798l33.523 19.334c.798.48 1.277 1.758.958 2.717-.319.958-1.277 1.278-2.075.799Z" fill="#E8975B"></path><path d="m401.003 210.125-18.678-10.866c-.798-.479-1.277-1.758-.957-2.717.319-.958 1.277-1.438 2.075-.798l18.677 10.865c.798.48 1.277 1.758.958 2.717-.319.958-1.277 1.278-2.075.799ZM403.876 150.683l-13.728-7.99c-.799-.479-1.277-1.758-.958-2.716.319-.959 1.277-1.439 2.075-.799l13.729 7.989c.798.48 1.277 1.758.958 2.717-.32.799-1.278 1.278-2.076.799Z" fill="#F8359E"></path><path d="m383.763 226.423-15.964-9.268c-.798-.479-1.277-1.757-.958-2.716.319-.959 1.277-1.438 2.075-.799l15.964 9.268c.798.479 1.277 1.758.958 2.716-.16.799-1.118 1.279-2.075.799Z" fill="#E8975B"></path><path d="m489.441 180.723-6.864-3.995c-.638-.319-.958-1.278-.798-1.917.16-.639.958-.959 1.596-.639l6.865 3.995c.638.319.957 1.278.798 1.917-.16.799-.958.959-1.597.639ZM502.531 188.233l-6.864-3.994c-.639-.32-.958-1.279-.798-1.918.159-.639.958-.959 1.596-.639l6.864 3.995c.639.319.958 1.278.799 1.917-.32.799-.958.959-1.597.639ZM515.462 195.744l-6.864-3.995c-.639-.32-.958-1.279-.799-1.918.16-.639.958-.958 1.597-.639l6.864 3.995c.639.319.958 1.278.798 1.917-.319.799-.958.959-1.596.64Z" fill="#fff"></path><path d="m521.847 199.419-.16-.16c-.638-.32-.957-1.278-.798-1.918.16-.639.958-.958 1.597-.639l.159.16c.639.32.958 1.278.799 1.918-.16.798-.958.958-1.597.639Z" fill="#F8359E"></path><path d="M170.171 279.314c-4.31 0-8.62-1.118-12.452-3.356l-45.655-26.365c-1.916-1.119-3.193-3.196-3.193-5.433 0-2.237 1.118-4.314 3.193-5.433l45.655-26.365c7.663-4.474 17.241-4.474 24.904 0l45.655 26.365c1.916 1.119 3.193 3.196 3.193 5.433 0 2.237-1.118 4.314-3.193 5.433l-45.655 26.365a24.686 24.686 0 0 1-12.452 3.356Zm-11.015-5.912c6.705 3.995 15.165 3.995 22.03 0l45.655-26.366c1.118-.639 1.597-1.757 1.597-2.876 0-1.278-.639-2.237-1.597-2.876l-45.655-26.366c-6.705-3.994-15.166-3.994-22.03 0l-45.655 26.366c-1.118.639-1.597 1.758-1.597 2.876 0 1.278.639 2.237 1.597 2.876l45.655 26.366Z" fill="url(#home-pc-illustration_svg__l)"></path><path opacity="0.6" d="M170.011 262.696c17.28 0 31.289-8.084 31.289-18.057 0-9.972-14.009-18.056-31.289-18.056s-31.288 8.084-31.288 18.056c0 9.973 14.008 18.057 31.288 18.057Z" fill="#020230"></path><path d="M216.465 115.529h-89.396l8.301 96.833c0 5.433 3.512 10.706 10.696 14.86 14.207 8.15 37.195 8.15 51.402 0 7.024-4.154 10.696-9.427 10.696-14.86l8.301-96.833Z" fill="url(#home-pc-illustration_svg__m)"></path><path opacity="0.4" d="M216.465 115.529h-89.396l1.437 15.979c2.075 2.556 4.789 5.113 8.301 7.51 17.081 11.185 45.177 13.422 64.333 5.273l-3.033 70.787c-.16 3.036-1.117 6.072-3.193 8.469-2.873 3.356-8.46 7.35-19.156 9.747 7.822-.479 15.485-2.556 21.551-6.072 7.024-4.154 10.695-9.427 10.695-14.86l6.705-77.658 1.756-19.175Z" fill="#06033E"></path><path opacity="0.4" d="M171.767 141.255c24.686 0 44.698-11.518 44.698-25.726 0-14.209-20.012-25.727-44.698-25.727s-44.698 11.518-44.698 25.727c0 14.208 20.012 25.726 44.698 25.726Z" fill="#06033E"></path><path opacity="0.4" d="M171.767 128.631c21.248 0 38.472-9.944 38.472-22.21 0-12.267-17.224-22.211-38.472-22.211s-38.472 9.944-38.472 22.211c0 12.266 17.224 22.21 38.472 22.21Z" fill="#06033E"></path><path d="M219.019 114.41v-.16l-.798-8.628v.159c-.319-6.551-4.949-13.102-13.569-18.056-18.198-10.546-47.571-10.546-65.61 0-8.94 5.113-13.409 11.825-13.569 18.536l-.958 7.51v.799c-.479 7.35 4.151 14.86 13.888 20.453 18.518 10.706 48.529 10.706 66.888 0 9.737-5.752 14.367-13.263 13.728-20.613Z" fill="url(#home-pc-illustration_svg__n)"></path><path d="M171.767 128.631c21.248 0 38.472-9.944 38.472-22.21 0-12.267-17.224-22.211-38.472-22.211s-38.472 9.944-38.472 22.211c0 12.266 17.224 22.21 38.472 22.21Z" fill="url(#home-pc-illustration_svg__o)"></path><path d="M170.011 128.631c21.248 0 38.472-9.944 38.472-22.21 0-12.267-17.224-22.211-38.472-22.211-21.247 0-38.472 9.944-38.472 22.211 0 12.266 17.225 22.21 38.472 22.21Z" fill="url(#home-pc-illustration_svg__p)"></path><path opacity="0.4" d="M149.099 94.117c15.006-8.629 39.43-8.629 54.435 0 .16.16.32.16.479.32-1.436-1.28-3.192-2.557-5.108-3.676-15.006-8.629-39.43-8.629-54.436 0-14.846 8.629-15.005 22.371-.478 31.159-9.579-8.628-7.823-20.293 5.108-27.803Z" fill="#06033E"></path><path d="M144.629 94.596c15.006-8.629 39.43-8.629 54.436 0 6.704 3.835 10.376 8.789 11.174 13.742.958-6.392-2.714-12.783-11.174-17.577-15.006-8.629-39.43-8.629-54.436 0-8.301 4.794-12.132 11.345-11.174 17.577.798-4.953 4.469-9.907 11.174-13.742Z" fill="url(#home-pc-illustration_svg__q)"></path><path d="M204.971 87.725c-18.198-10.706-47.73-11.025-65.929-.64-18.198 10.387-18.358 27.325-.319 38.031s47.571 10.866 65.929.639c18.199-10.386 18.358-27.324.319-38.03Zm-6.066 34.515c-4.948 2.876-11.015 4.794-17.56 5.752l-.638-2.237c-.319-.959-1.118-1.598-2.075-1.598h-13.889c-.957 0-1.756.639-2.075 1.598l-.638 2.237c-6.386-.958-12.452-2.876-17.56-5.752-15.006-8.629-15.006-22.69 0-31.479 15.005-8.629 39.43-8.629 54.435 0 15.166 8.629 15.166 22.69 0 31.479Z" fill="url(#home-pc-illustration_svg__r)"></path><path d="M198.905 89.163c-15.006-8.629-39.43-8.629-54.436 0-7.822 4.474-11.653 10.546-11.174 16.459.319-5.433 4.15-10.706 11.174-14.86 15.006-8.63 39.43-8.63 54.436 0 7.183 4.154 10.855 9.427 11.174 14.86.479-5.913-3.192-11.985-11.174-16.459Z" fill="#fff"></path><path d="M204.492 124.157c-18.358 10.387-47.731 10.067-65.929-.639-8.62-5.113-13.09-11.665-13.409-18.216-.32 7.031 4.15 14.381 13.409 19.814 18.039 10.706 47.571 10.866 65.929.639 9.578-5.433 14.208-12.623 13.729-19.974-.16 6.712-4.789 13.423-13.729 18.376Z" fill="#fff"></path><path d="M175.917 129.111h-8.301c-.638 0-1.117-.48-1.117-1.119v-.159c0-.64.479-1.119 1.117-1.119h8.301c.639 0 1.118.479 1.118 1.119v.159c-.16.639-.479 1.119-1.118 1.119Z" fill="#0C0A78"></path><path d="M175.917 126.874h-8.301c-.638 0-1.117.479-1.117 1.118v.48c.16-.48.479-.799.958-.799h8.301c.479 0 .798.319.958.799v-.48c.159-.639-.16-1.118-.799-1.118Z" fill="url(#home-pc-illustration_svg__s)"></path><path opacity="0.5" d="M174.64 127.992s24.903-8.309 14.846-37.071c-10.057-28.762-29.852-37.391-21.87-60.401 0 0-12.451 18.536-.798 43.783 11.653 25.087 14.208 22.21 14.048 34.355-.16 14.221-11.653 19.494-11.653 19.494h5.427v-.16ZM176.875 34.515S174.321 17.257 190.444 0c0 0-14.207 31.798-9.578 47.618 0 0-3.831-10.067-3.991-13.103Z" fill="#fff"></path></g><defs><linearGradient id="home-pc-illustration_svg__b" x1="647.917" y1="430.427" x2="699.977" y2="430.427" gradientUnits="userSpaceOnUse"><stop stop-color="#00ACBF"></stop><stop offset="1" stop-color="#006CD4"></stop></linearGradient><linearGradient id="home-pc-illustration_svg__c" x1="576.639" y1="359.011" x2="664.084" y2="359.011" gradientUnits="userSpaceOnUse"><stop stop-color="#00ACBF"></stop><stop offset="1" stop-color="#006CD4"></stop></linearGradient><linearGradient id="home-pc-illustration_svg__d" x1="0" y1="388.336" x2="87.445" y2="388.336" gradientUnits="userSpaceOnUse"><stop stop-color="#00ACBF"></stop><stop offset="1" stop-color="#006CD4"></stop></linearGradient><linearGradient id="home-pc-illustration_svg__e" x1="101.806" y1="382.722" x2="568.512" y2="382.722" gradientUnits="userSpaceOnUse"><stop stop-color="#00ACBF"></stop><stop offset="1" stop-color="#006CD4"></stop></linearGradient><linearGradient id="home-pc-illustration_svg__j" x1="303.69" y1="204.955" x2="589.384" y2="204.955" gradientUnits="userSpaceOnUse"><stop stop-color="#3919BB"></stop><stop offset="1" stop-color="#6507FA"></stop></linearGradient><linearGradient id="home-pc-illustration_svg__l" x1="108.91" y1="244.074" x2="231.471" y2="244.074" gradientUnits="userSpaceOnUse"><stop stop-color="#00ACBF"></stop><stop offset="1" stop-color="#006CD4"></stop></linearGradient><linearGradient id="home-pc-illustration_svg__n" x1="124.447" y1="111.274" x2="219.126" y2="111.274" gradientUnits="userSpaceOnUse"><stop stop-color="#E39A65"></stop><stop offset="0.252" stop-color="#A92FFB"></stop><stop offset="0.556" stop-color="#3919BB"></stop></linearGradient><linearGradient id="home-pc-illustration_svg__o" x1="133.325" y1="106.459" x2="210.244" y2="106.459" gradientUnits="userSpaceOnUse"><stop stop-color="#4F1FEC"></stop><stop offset="1" stop-color="#A92FFB"></stop></linearGradient><linearGradient id="home-pc-illustration_svg__p" x1="131.5" y1="106.459" x2="208.419" y2="106.459" gradientUnits="userSpaceOnUse"><stop stop-color="#4F1FEC"></stop><stop offset="1" stop-color="#A92FFB"></stop></linearGradient><linearGradient id="home-pc-illustration_svg__q" x1="133.331" y1="96.31" x2="230.313" y2="96.31" gradientUnits="userSpaceOnUse"><stop stop-color="#131060"></stop><stop offset="0.186" stop-color="#141062"></stop><stop offset="0.282" stop-color="#19106A"></stop><stop offset="0.358" stop-color="#221078"></stop><stop offset="0.424" stop-color="#2E0F8B"></stop><stop offset="0.482" stop-color="#3E0FA3"></stop><stop offset="0.536" stop-color="#510EC2"></stop><stop offset="0.585" stop-color="#680DE5"></stop><stop offset="0.607" stop-color="#740DF8"></stop><stop offset="0.618" stop-color="#7A14F0"></stop><stop offset="0.683" stop-color="#9B3CC3"></stop><stop offset="0.748" stop-color="#B75D9D"></stop><stop offset="0.812" stop-color="#CC7680"></stop><stop offset="0.876" stop-color="#DC886C"></stop><stop offset="0.939" stop-color="#E5935F"></stop><stop offset="1" stop-color="#E8975B"></stop></linearGradient><linearGradient id="home-pc-illustration_svg__s" x1="165.697" y1="127.641" x2="179.114" y2="127.641" gradientUnits="userSpaceOnUse"><stop stop-color="#131060"></stop><stop offset="0.186" stop-color="#141062"></stop><stop offset="0.282" stop-color="#19106A"></stop><stop offset="0.358" stop-color="#221078"></stop><stop offset="0.424" stop-color="#2E0F8B"></stop><stop offset="0.482" stop-color="#3E0FA3"></stop><stop offset="0.536" stop-color="#510EC2"></stop><stop offset="0.585" stop-color="#680DE5"></stop><stop offset="0.607" stop-color="#740DF8"></stop><stop offset="0.618" stop-color="#7A14F0"></stop><stop offset="0.683" stop-color="#9B3CC3"></stop><stop offset="0.748" stop-color="#B75D9D"></stop><stop offset="0.812" stop-color="#CC7680"></stop><stop offset="0.876" stop-color="#DC886C"></stop><stop offset="0.939" stop-color="#E5935F"></stop><stop offset="1" stop-color="#E8975B"></stop></linearGradient><radialGradient id="home-pc-illustration_svg__f" cx="0" cy="0" r="1" gradientUnits="userSpaceOnUse" gradientTransform="matrix(356.459 0 0 356.806 359.595 36.848)"><stop stop-color="#E39A65"></stop><stop offset="0.474" stop-color="#A92FFB"></stop><stop offset="0.595" stop-color="#891CFB"></stop><stop offset="0.742" stop-color="#6507FA"></stop><stop offset="0.802" stop-color="#0D0C6F"></stop></radialGradient><radialGradient id="home-pc-illustration_svg__g" cx="0" cy="0" r="1" gradientUnits="userSpaceOnUse" gradientTransform="matrix(389.785 0 0 390.164 141.577 323.389)"><stop stop-color="#E39A65"></stop><stop offset="0.474" stop-color="#A92FFB"></stop><stop offset="0.568" stop-color="#891CFB"></stop><stop offset="0.682" stop-color="#6507FA"></stop><stop offset="0.738" stop-color="#0D0C6F"></stop></radialGradient><radialGradient id="home-pc-illustration_svg__h" cx="0" cy="0" r="1" gradientUnits="userSpaceOnUse" gradientTransform="matrix(349.537 0 0 349.878 177.427 245.077)"><stop stop-color="#E39A65"></stop><stop offset="0.474" stop-color="#A92FFB"></stop><stop offset="0.588" stop-color="#891CFB"></stop><stop offset="0.726" stop-color="#6507FA"></stop><stop offset="1" stop-color="#3919BB"></stop></radialGradient><radialGradient id="home-pc-illustration_svg__i" cx="0" cy="0" r="1" gradientUnits="userSpaceOnUse" gradientTransform="matrix(356.531 0 0 356.878 264.503 111.274)"><stop stop-color="#E39A65"></stop><stop offset="0.474" stop-color="#A92FFB"></stop><stop offset="0.588" stop-color="#891CFB"></stop><stop offset="0.726" stop-color="#6507FA"></stop><stop offset="1" stop-color="#3919BB"></stop></radialGradient><radialGradient id="home-pc-illustration_svg__k" cx="0" cy="0" r="1" gradientUnits="userSpaceOnUse" gradientTransform="matrix(555.287 0 0 555.828 134.351 35.065)"><stop stop-color="#E39A65"></stop><stop offset="0.474" stop-color="#A92FFB"></stop><stop offset="0.588" stop-color="#891CFB"></stop><stop offset="0.726" stop-color="#6507FA"></stop><stop offset="1" stop-color="#3919BB"></stop></radialGradient><radialGradient id="home-pc-illustration_svg__m" cx="0" cy="0" r="1" gradientUnits="userSpaceOnUse" gradientTransform="matrix(263.955 0 0 264.212 119.776 144.005)"><stop stop-color="#E39A65"></stop><stop offset="0.153" stop-color="#A92FFB"></stop><stop offset="0.409" stop-color="#3919BB"></stop><stop offset="0.931" stop-color="#3919BB"></stop></radialGradient><radialGradient id="home-pc-illustration_svg__r" cx="0" cy="0" r="1" gradientUnits="userSpaceOnUse" gradientTransform="matrix(172.669 0 0 172.837 112.63 84.461)"><stop stop-color="#E39A65"></stop><stop offset="0.252" stop-color="#A92FFB"></stop><stop offset="0.736" stop-color="#3919BB"></stop></radialGradient><clipPath id="home-pc-illustration_svg__a"><path fill="#fff" d="M0 0h700v519H0z"></path></clipPath></defs>
      </svg>
